<?xml version="1.0" encoding="UTF-8"?>
<svg width="40px" height="40px" viewBox="0 0 40 40" version="1.1" xmlns="http://www.w3.org/2000/svg" xmlns:xlink="http://www.w3.org/1999/xlink">
    <title>编组 8</title>
    <g id="页面-1" stroke="none" stroke-width="1" fill="none" fill-rule="evenodd">
        <g id="38-User-center-Security" transform="translate(-64.000000, -265.000000)">
            <g id="编组-8" transform="translate(64.000000, 265.000000)">
                <g id="编组-2备份-2" fill="#EFFFFC">
                    <circle id="椭圆形备份-3" cx="20" cy="20" r="20"></circle>
                </g>
                <g id="lock" transform="translate(12.000000, 11.000000)" fill="#F0B90A" fill-rule="nonzero">
                    <path d="M13.6,6.79999992 L14.45,6.79999992 C14.919442,6.79999992 15.3,7.180558 15.3,7.64999992 L15.3,16.1499999 C15.3,16.619442 14.919442,16.9999999 14.45,16.9999999 L0.85,16.9999999 C0.380557962,16.9999999 0,16.619442 0,16.1499999 L0,7.64999992 C0,7.180558 0.380557962,6.79999992 0.85,6.79999992 L1.7,6.79999992 L1.7,5.94999992 C1.7,3.82426972 2.83406356,1.86001392 4.675,0.797148777 C6.51593637,-0.265716375 8.78406363,-0.265716375 10.625,0.797148777 C12.4659365,1.86001392 13.6,3.82426972 13.6,5.94999992 L13.6,6.79999992 Z M1.7,8.5 L1.7,15.3 L13.6,15.3 L13.6,8.5 L1.7,8.5 Z M6.8,11.05 L8.5,11.05 L8.5,12.75 L6.8,12.75 L6.8,11.05 Z M11.9,6.8 L11.9,5.95 C11.9,3.60278981 9.99721014,1.7 7.65,1.7 C5.30278981,1.7 3.4,3.60278981 3.4,5.95 L3.4,6.8 L11.9,6.8 Z" id="形状"></path>
                </g>
            </g>
        </g>
    </g>
</svg>