<?xml version="1.0" encoding="UTF-8"?>
<svg width="265px" height="200px" viewBox="0 0 265 200" version="1.1" xmlns="http://www.w3.org/2000/svg" xmlns:xlink="http://www.w3.org/1999/xlink">
    <title>image03</title>
    <g id="页面-1" stroke="none" stroke-width="1" fill="none" fill-rule="evenodd">
        <g id="画板" transform="translate(-703.000000, -281.000000)">
            <g id="image03" transform="translate(703.000000, 281.000000)">
                <path d="M213.04886,45.3251301 L115.121723,2.42808303 C115.013874,2.37415831 114.879062,2.32023385 114.771213,2.26630912 C114.097155,1.86187447 111.212187,0.271097709 108.084558,0.136286159 L107.734048,0.136286159 C104.579457,0.298060072 101.721451,1.86187447 101.020431,2.26630912 C100.912582,2.32023385 100.804732,2.40112067 100.669921,2.42808303 L2.95848237,45.3251301 C1.23289406,45.9991881 0.208326119,47.7247764 0.208326119,49.4234024 L0.208326119,54.6001673 C0.208326119,56.3796804 1.63732897,57.8086832 3.41684174,57.8086832 L13.9860703,57.8086832 C15.4420355,57.8086832 16.7092644,58.7523643 17.0867367,60.1544048 C18.4078904,65.1963582 24.0160523,64.8997728 24.9058087,64.845848 L190.724061,64.845848 C191.613818,64.9267349 197.22198,65.2233206 198.543133,60.1544048 C198.920606,58.7523643 200.187835,57.8086832 201.6438,57.8086832 L212.213028,57.8086832 C213.992541,57.8086832 215.421544,56.3796804 215.421544,54.6001673 L215.421544,49.6930255 C215.421544,49.5312516 215.448506,49.3425153 215.475469,49.1807417 C215.664205,47.5899649 214.666599,46.160962 213.04886,45.3251301 Z M206.011695,180.082793 L9.96868507,180.082793 C2.44619853,180.082793 2.60769712,187.443506 2.60769712,187.443506 L2.60769712,196.556769 C2.60769712,198.336282 4.03697503,199.765285 5.81648807,199.765285 L210.13693,199.765285 C211.916443,199.765285 213.345446,198.336282 213.345446,196.556769 L213.345446,187.443506 C213.372408,187.443506 213.561144,180.082793 206.011695,180.082793 Z M31.214991,75.6038126 L31.214991,158.512939 L22.8297105,158.512939 C16.6283773,158.512939 15.7655833,164.390724 15.6577338,165.523141 C15.6577338,165.630991 15.6307717,165.73884 15.6307717,165.819727 L15.6307717,169.486602 C15.6307717,171.266115 17.0597746,172.695118 18.8392874,172.695118 L197.491603,172.695118 C199.271116,172.695118 200.700119,171.266115 200.700119,169.486602 L200.700119,165.819727 C200.700119,165.711878 200.700119,165.604028 200.673156,165.523141 C200.565307,164.390724 199.702513,158.512939 193.50118,158.512939 L185.115899,158.512939 L185.115899,75.6038126 C185.115899,73.8242995 183.686896,72.3952969 181.907383,72.3952969 L161.308173,72.3952969 C159.52866,72.3952969 158.099657,73.8242998 158.099657,75.6038126 L158.099657,158.512939 L141.652644,158.512939 L141.652644,75.6038126 C141.652644,73.8242995 140.223641,72.3952969 138.444128,72.3952969 L118.006691,72.3952969 C116.227178,72.3952969 114.798175,73.8242998 114.798175,75.6038126 L114.798175,158.674713 L101.451828,158.674713 L101.451828,75.6038126 C101.451828,73.8242995 100.022825,72.3952969 98.2433124,72.3952969 L77.8058757,72.3952969 C76.0263627,72.3952969 74.5973599,73.8242998 74.5973599,75.6038126 L74.5973599,158.512939 L58.1503463,158.512939 L58.1503463,75.6038126 C58.1503463,73.8242995 56.7213434,72.3952969 54.9418304,72.3952969 L34.5043937,72.3952969 C32.6439939,72.3952969 31.214991,73.8242998 31.214991,75.6038126 Z" id="形状" fill="#D7DADD" fill-rule="nonzero"></path>
                <g id="编组-41" transform="translate(142.000000, 77.000000)">
                    <circle id="椭圆形备份-4" fill="#F0B90A" cx="61.5" cy="61.5" r="61.5"></circle>
                    <path d="M44.0517747,77.5968416 C44.8394374,77.5968416 45.4641354,77.3335537 45.9258687,76.8069779 C46.387602,76.2804021 46.6184686,75.5715501 46.6184686,74.6804219 L46.6184686,74.6804219 L46.6184686,51.3085586 C46.6184686,50.3634226 46.3672314,49.6275667 45.8647569,49.1009909 C45.3622824,48.5744152 44.6357315,48.3111273 43.6851041,48.3111273 C42.7344767,48.3111273 42.0079258,48.5744152 41.5054513,49.1009909 C41.0029768,49.6275667 40.7517396,50.3634226 40.7517396,51.3085586 L40.7517396,51.3085586 L40.7498877,66.8443852 L27.5515993,50.1338896 C27.1215536,49.5938119 26.7339466,49.1803149 26.3887783,48.8933986 L26.18677,48.7364385 C25.7929387,48.4528977 25.2293524,48.3111273 24.4960113,48.3111273 C23.654027,48.3111273 22.9817977,48.5811661 22.4793232,49.1212439 C21.9768487,49.6613216 21.7256115,50.4444343 21.7256115,51.4705819 L21.7256115,51.4705819 L21.7256115,74.5589044 C21.7256115,75.5310443 21.9768487,76.2804021 22.4793232,76.8069779 C22.9817977,77.3335537 23.7083486,77.5968416 24.658976,77.5968416 C25.6367642,77.5968416 26.3701053,77.3335537 26.8589994,76.8069779 C27.3478935,76.2804021 27.5923405,75.5310443 27.5923405,74.5589044 L27.5923405,74.5589044 L27.5904886,58.9733661 L40.7924808,75.7335734 C41.2225265,76.2736512 41.6289952,76.6918363 42.0118867,76.988129 L42.2387925,77.1512774 C42.6869454,77.4483202 43.2912728,77.5968416 44.0517747,77.5968416 Z M71.633586,77.0984015 C72.5442372,77.0984015 73.2410233,76.8813549 73.7239444,76.4472617 C74.2068655,76.0131685 74.448326,75.375183 74.448326,74.5333053 C74.448326,73.7177362 74.2068655,73.0929051 73.7239444,72.6588119 C73.2410233,72.2247186 72.5442372,72.007672 71.633586,72.007672 L71.633586,72.007672 L58.8073274,72.0094658 L72.4200575,55.0385738 C72.9029785,54.4685524 73.2517549,53.8939635 73.4663865,53.3148072 L73.5790681,52.9667652 C73.7722365,52.2695852 73.7722365,51.6447541 73.5790681,51.0922718 C73.3858996,50.5397896 73.0340571,50.0991192 72.5235405,49.7702607 C72.013024,49.4414022 71.3300356,49.2769729 70.4745754,49.2769729 L70.4745754,49.2769729 L53.8344946,49.2769729 C52.9238434,49.2769729 52.2270573,49.4940196 51.7441362,49.9281128 C51.2612151,50.362206 51.0197546,50.9870371 51.0197546,51.8026062 C51.0197546,52.6181752 51.2612151,53.2495836 51.7441362,53.6968311 C52.2270573,54.1440787 52.9238434,54.3677024 53.8344946,54.3677024 L53.8344946,54.3677024 L65.9645942,54.3694962 L52.3857314,71.3368007 C51.9028103,71.9068221 51.5588248,72.4768435 51.353775,73.0468649 L51.2474174,73.3888777 C51.0680467,74.0729034 51.0680467,74.6977345 51.2474174,75.2633711 C51.4267881,75.8290077 51.7786306,76.2762553 52.3029449,76.6051138 C52.8272592,76.9339723 53.5033487,77.0984015 54.3312134,77.0984015 L54.3312134,77.0984015 L71.633586,77.0984015 Z M87.094149,82.5337703 C87.7973771,82.5337703 88.3721308,82.3007342 88.8184102,81.8346622 C89.2646896,81.3685901 89.4878292,80.8026455 89.4878292,80.1368283 L89.4878292,80.1368283 L89.4878292,77.6182233 L89.9721438,77.5301539 C91.049807,77.3137633 92.0376649,76.9933387 92.9357176,76.5688803 L93.4637726,76.3017211 C94.8431815,75.5560058 95.9250709,74.5772545 96.7094406,73.3654672 C97.4938104,72.1536798 97.8859953,70.7621218 97.8859953,69.1907932 C97.8859953,67.1933415 97.2706707,65.5687475 96.0400216,64.3170112 C94.8093725,63.0652748 92.9093043,62.1597634 90.3398171,61.6004769 L90.3398171,61.6004769 L85.8364527,60.6417001 C84.5111382,60.3487405 83.5847705,59.9758829 83.0573494,59.5231272 C82.5299284,59.0703715 82.2662178,58.471136 82.2662178,57.7254207 C82.2662178,56.7133785 82.7057354,55.8877652 83.5847705,55.2485806 C84.4638056,54.6093961 85.7012165,54.2898038 87.2970033,54.2898038 C88.5682233,54.2898038 89.636589,54.4096509 90.5021005,54.6493451 C91.367612,54.8890393 92.1655054,55.1819989 92.8957807,55.5282239 C93.5990088,55.8744488 94.2143333,56.0009541 94.7417544,55.9077397 C95.2691754,55.8145253 95.6951694,55.5881474 96.0197362,55.2286061 C96.344303,54.8690648 96.553919,54.4496 96.6485844,53.9702116 C96.7432497,53.4908232 96.6891552,53.0114348 96.486301,52.5320464 C96.2834467,52.052658 95.9250709,51.6531677 95.4111734,51.3335754 C94.4645202,50.6677582 93.3488218,50.1550789 92.0640782,49.7955376 C91.2075825,49.5558434 90.390155,49.3842105 89.6117957,49.280639 L89.4878292,49.2671209 L89.4878292,46.8592837 C89.4878292,46.2885832 89.318922,45.7912585 88.9811076,45.3673096 L88.7981248,45.1614498 C88.3383218,44.6953777 87.7703299,44.4623417 87.094149,44.4623417 C86.390921,44.4623417 85.8094054,44.6953777 85.3496025,45.1614498 C84.8897995,45.6275218 84.659898,46.1934665 84.659898,46.8592837 L84.659898,46.8592837 L84.659898,49.3760728 L84.4309983,49.4081306 C83.224892,49.6054098 82.1299799,49.9388116 81.146262,50.4083361 L80.6636692,50.6544418 C79.2436895,51.4267898 78.1347529,52.438832 77.3368595,53.6905683 C76.5389661,54.9423047 76.1400194,56.3671536 76.1400194,57.9651149 C76.1400194,60.0158319 76.7485822,61.6870331 77.9657077,62.9787185 C79.1828332,64.270404 81.0355687,65.1825735 83.5239142,65.7152273 L83.5239142,65.7152273 L87.9867078,66.6740041 C88.9063137,66.8604329 89.6433508,67.093469 90.1978191,67.3731122 C90.7522874,67.6527554 91.1444723,67.9790059 91.3743738,68.3518635 C91.6042753,68.7247211 91.719226,69.1508442 91.719226,69.6302326 C91.719226,70.2161517 91.5501808,70.7354891 91.2120904,71.1882449 C90.874,71.6410006 90.3262935,72.0072 89.5689709,72.2868433 C88.8116484,72.5664865 87.8109007,72.7063081 86.566728,72.7063081 C84.8897995,72.7063081 83.4698197,72.5265375 82.3067887,72.1669962 C81.1437576,71.8074549 80.2376753,71.4545717 79.5885417,71.1083468 C78.9123609,70.7621218 78.3105599,70.6555911 77.7831388,70.7887545 C77.2557178,70.921918 76.8297239,71.194903 76.5051571,71.6077097 C76.1805902,72.0205164 75.9912596,72.4999048 75.9371651,73.0458749 C75.8830707,73.591845 75.9709742,74.1178406 76.2008757,74.6238617 C76.4307772,75.1298828 76.8432475,75.5293731 77.4382866,75.8223327 C78.3578926,76.3017211 79.5074,76.7411605 80.8868089,77.1406508 C81.9213656,77.4402685 83.0928489,77.6425105 84.4012588,77.7473767 L84.659898,77.7653084 L84.659898,80.1368283 C84.659898,80.7075287 84.8288052,81.2048534 85.1666197,81.6288024 L85.3496025,81.8346622 C85.8094054,82.3007342 86.390921,82.5337703 87.094149,82.5337703 Z" id="NZ$" fill="#FFFFFF" fill-rule="nonzero" transform="translate(59.805803, 63.498056) rotate(1.000000) translate(-59.805803, -63.498056) "></path>
                </g>
            </g>
        </g>
    </g>
</svg>