<?xml version="1.0" encoding="UTF-8"?>
<svg width="21px" height="18px" viewBox="0 0 21 18" version="1.1" xmlns="http://www.w3.org/2000/svg" xmlns:xlink="http://www.w3.org/1999/xlink">
    <title>编组 11</title>
    <g id="页面-1" stroke="none" stroke-width="1" fill="none" fill-rule="evenodd">
        <g id="23-Coinflake-user-center-Pay-my-orders-step-3-(Transaction-requirements)" transform="translate(-551.000000, -349.000000)">
            <g id="编组-107" transform="translate(514.000000, 157.000000)">
                <g id="编组-106" transform="translate(23.000000, 164.000000)">
                    <g id="编组-11" transform="translate(14.833333, 28.777778)">
                        <path d="M19.3333333,0.637614443 L19.3333333,1.94709109 C19.3333333,2.29999319 19.0343211,2.58470554 18.6636943,2.58470554 L5.65321923,2.58470554 L7.82959704,4.65700112 C8.09269974,4.9075213 8.09269974,5.30604076 7.82959704,5.55656094 L6.86091667,6.47877653 C6.59795994,6.72929671 6.17942463,6.72929671 5.91632193,6.47877653 L0.188349651,1.0247365 C-0.062783217,0.785641513 -0.062783217,0.409916841 0.188349651,0.170794051 C0.307843586,0.0569035517 0.463422178,1.50990331e-13 0.630824627,1.50990331e-13 L18.6636943,1.50990331e-13 C19.0343211,1.50990331e-13 19.3333333,0.284712348 19.3333333,0.637614443 Z" id="路径" fill="#F0B90A" transform="translate(9.666667, 3.333333) scale(1, -1) translate(-9.666667, -3.333333) "></path>
                        <path d="M18.7025016,16.6666667 L0.669667932,16.6666667 C0.298895295,16.6666667 -1.54543045e-13,16.382038 -1.54543045e-13,16.0290251 L-1.54543045e-13,14.7195776 C-1.54543045e-13,14.3666481 0.298895295,14.081936 0.669667932,14.081936 L13.6801089,14.081936 L11.503732,12.0096426 C11.2406294,11.7591505 11.2406294,11.3606314 11.503732,11.1102227 L12.4722952,10.1878691 C12.7353978,9.93737697 13.1539329,9.93737697 13.4170063,10.1878691 L19.1450056,15.6419034 C19.3961092,15.881026 19.3961092,16.2567503 19.1450056,16.495845 C19.0253658,16.6097632 18.8699332,16.6666667 18.7025016,16.6666667 Z" id="路径" fill="#9B9B9B" transform="translate(9.666667, 13.333333) scale(1, -1) translate(-9.666667, -13.333333) "></path>
                    </g>
                </g>
            </g>
        </g>
    </g>
</svg>